<mxfile host="app.diagrams.net" modified="2023-11-21T16:45:25.067Z" agent="Mozilla/5.0 (Windows NT 10.0; Win64; x64) AppleWebKit/537.36 (KHTML, like Gecko) Chrome/119.0.0.0 Safari/537.36 Edg/119.0.0.0" etag="4iR0aRzOevb_bd9Wh6kE" version="22.1.3" type="github">
  <diagram id="07fea595-8f29-1299-0266-81d95cde20df" name="Page-1">
    <mxGraphModel dx="917" dy="550" grid="1" gridSize="10" guides="1" tooltips="1" connect="1" arrows="1" fold="1" page="1" pageScale="1" pageWidth="1169" pageHeight="827" background="#ffffff" math="0" shadow="0">
      <root>
        <mxCell id="0" />
        <mxCell id="1" parent="0" />
        <mxCell id="170" value="&lt;font color=&quot;#23497d&quot;&gt;CBDC&lt;/font&gt;" style="swimlane;whiteSpace=wrap;swimlaneFillColor=#BAC8D3;fontFamily=Tahoma;html=1;opacity=50;fillColor=#0050ef;fontColor=#ffffff;strokeColor=#001DBC;" parent="1" vertex="1">
          <mxGeometry x="400" y="60" width="245" height="770" as="geometry">
            <mxRectangle x="20" y="20" width="80" height="23" as="alternateBounds" />
          </mxGeometry>
        </mxCell>
        <mxCell id="171" value="Identificación de los principales procesos y las tablas necesarias" style="whiteSpace=wrap;shadow=0;fontColor=#ffffff;fontFamily=Helvetica;fontStyle=0;html=1;fontSize=12;strokeColor=#006EAF;fillColor=#1ba1e2;spacing=6;verticalAlign=middle;" parent="170" vertex="1">
          <mxGeometry x="30" y="60" width="120" height="60" as="geometry" />
        </mxCell>
        <mxCell id="houmUWrHM56fmbBKgypH-231" value="Procesamiento&amp;nbsp; para creación de los reportes haciendo uso de looker" style="whiteSpace=wrap;strokeColor=#006EAF;fillColor=#1ba1e2;shadow=0;fontColor=#ffffff;fontFamily=Helvetica;fontStyle=0;html=1;fontSize=12;spacing=6;verticalAlign=middle;" vertex="1" parent="170">
          <mxGeometry x="20" y="680" width="120" height="60" as="geometry" />
        </mxCell>
        <mxCell id="173" value="Limpieza y carga de datos haciendo uso de Big Query" style="whiteSpace=wrap;strokeColor=#006EAF;fillColor=#1ba1e2;shadow=0;fontColor=#ffffff;fontFamily=Helvetica;fontStyle=0;html=1;fontSize=12;spacing=6;verticalAlign=middle;" parent="170" vertex="1">
          <mxGeometry x="125" y="537" width="120" height="80" as="geometry" />
        </mxCell>
        <mxCell id="houmUWrHM56fmbBKgypH-251" value="" style="edgeStyle=segmentEdgeStyle;strokeColor=#006EAF;strokeWidth=3;html=1;endArrow=block;endFill=1;fillColor=#1ba1e2;" edge="1" parent="170" source="173" target="houmUWrHM56fmbBKgypH-231">
          <mxGeometry width="100" height="100" relative="1" as="geometry">
            <mxPoint x="107.5" y="508" as="sourcePoint" />
            <mxPoint x="102.5" y="658" as="targetPoint" />
          </mxGeometry>
        </mxCell>
        <mxCell id="183" value="&lt;font color=&quot;#23497d&quot;&gt;Analista de datos&lt;/font&gt;" style="swimlane;whiteSpace=wrap;fillColor=#0050ef;swimlaneFillColor=#BAC8D3;fontColor=#ffffff;fontFamily=Tahoma;html=1;strokeColor=#001DBC;opacity=25;" parent="1" vertex="1">
          <mxGeometry x="585" y="57" width="190" height="770" as="geometry">
            <mxRectangle x="20" y="20" width="80" height="23" as="alternateBounds" />
          </mxGeometry>
        </mxCell>
        <mxCell id="184" value="Extracción de las bases de datos de las fuentes necesarias&amp;nbsp;&lt;br&gt;(Quiter, RCN, Simetrical)" style="whiteSpace=wrap;shadow=0;fontColor=#ffffff;fontFamily=Helvetica;fontStyle=0;html=1;fontSize=12;strokeColor=#006EAF;fillColor=#1ba1e2;spacing=6;verticalAlign=middle;" parent="183" vertex="1">
          <mxGeometry x="45" y="123" width="120" height="90" as="geometry" />
        </mxCell>
        <mxCell id="186" value="" style="edgeStyle=segmentEdgeStyle;strokeColor=#006EAF;strokeWidth=3;html=1;endArrow=block;endFill=1;fillColor=#1ba1e2;" parent="183" source="184" target="houmUWrHM56fmbBKgypH-229" edge="1">
          <mxGeometry width="100" height="100" relative="1" as="geometry">
            <mxPoint x="-10" y="100" as="sourcePoint" />
            <mxPoint x="80" y="231" as="targetPoint" />
          </mxGeometry>
        </mxCell>
        <mxCell id="houmUWrHM56fmbBKgypH-229" value="Procesamiento de las bases de datos&amp;nbsp;&lt;br&gt;(Cruze, Actualización, Unión)" style="whiteSpace=wrap;shadow=0;fontColor=#ffffff;fontFamily=Helvetica;fontStyle=0;html=1;fontSize=12;strokeColor=#006EAF;fillColor=#1ba1e2;spacing=6;verticalAlign=middle;" vertex="1" parent="183">
          <mxGeometry x="45" y="252" width="120" height="90" as="geometry" />
        </mxCell>
        <mxCell id="172" value="Verificación de las tablas generadas y subida a Google cloud storage" style="whiteSpace=wrap;strokeColor=#006EAF;fillColor=#1ba1e2;shadow=0;fontColor=#ffffff;fontFamily=Helvetica;fontStyle=0;html=1;fontSize=12;spacing=6;verticalAlign=middle;" parent="183" vertex="1">
          <mxGeometry x="-60" y="422" width="120" height="60" as="geometry" />
        </mxCell>
        <mxCell id="houmUWrHM56fmbBKgypH-253" value="" style="edgeStyle=segmentEdgeStyle;strokeColor=#006EAF;strokeWidth=3;html=1;endArrow=block;endFill=1;fillColor=#1ba1e2;exitX=0.5;exitY=1;exitDx=0;exitDy=0;entryX=1;entryY=0.5;entryDx=0;entryDy=0;" edge="1" parent="183" source="houmUWrHM56fmbBKgypH-229" target="172">
          <mxGeometry width="100" height="100" relative="1" as="geometry">
            <mxPoint x="80" y="410" as="sourcePoint" />
            <mxPoint x="120" y="473" as="targetPoint" />
            <Array as="points">
              <mxPoint x="80" y="342" />
              <mxPoint x="80" y="452" />
            </Array>
          </mxGeometry>
        </mxCell>
        <mxCell id="202" value="" style="edgeStyle=segmentEdgeStyle;strokeColor=#006EAF;strokeWidth=3;html=1;endArrow=block;endFill=1;fillColor=#1ba1e2;" parent="1" source="171" target="184" edge="1">
          <mxGeometry x="164.5" y="178.5" width="100" height="100" as="geometry">
            <mxPoint x="630" y="249" as="sourcePoint" />
            <mxPoint x="730" y="149" as="targetPoint" />
          </mxGeometry>
        </mxCell>
        <mxCell id="175" value="" style="edgeStyle=segmentEdgeStyle;strokeColor=#6c8ebf;strokeWidth=3;html=1;endArrow=block;endFill=1;fillColor=#dae8fc;gradientColor=#7ea6e0;" parent="1" source="171" target="172" edge="1">
          <mxGeometry width="100" height="100" relative="1" as="geometry">
            <mxPoint x="585" y="170" as="sourcePoint" />
            <mxPoint x="685" y="245" as="targetPoint" />
          </mxGeometry>
        </mxCell>
        <mxCell id="174" value="" style="edgeStyle=segmentEdgeStyle;strokeColor=#006EAF;strokeWidth=3;html=1;endArrow=block;endFill=1;fillColor=#1ba1e2;exitX=0.5;exitY=1;exitDx=0;exitDy=0;" parent="1" source="172" target="173" edge="1">
          <mxGeometry width="100" height="100" relative="1" as="geometry">
            <mxPoint x="630" y="535" as="sourcePoint" />
            <mxPoint x="695" y="597.5" as="targetPoint" />
          </mxGeometry>
        </mxCell>
      </root>
    </mxGraphModel>
  </diagram>
</mxfile>
